<?xml version="1.0" encoding="UTF-8"?>
<svg width="12px" height="17px" viewBox="0 0 12 17" version="1.1" xmlns="http://www.w3.org/2000/svg" xmlns:xlink="http://www.w3.org/1999/xlink">
    <!-- Generator: Sketch 48.1 (47250) - http://www.bohemiancoding.com/sketch -->
    <title>rubbish-bin</title>
    <desc>Created with Sketch.</desc>
    <defs></defs>
    <g id="Icons-/-Navigation-24px-/-Grey-/-Delete" stroke="none" stroke-width="1" fill="none" fill-rule="evenodd" transform="translate(-6.000000, -4.000000)">
        <g id="rubbish-bin" transform="translate(6.000000, 4.000000)" fill="#000000" fill-rule="nonzero">
            <path d="M1.40647869,15.2964197 C1.42461639,15.7296 1.78107541,16.0714623 2.21457049,16.0714623 L9.76516721,16.0714623 C10.1986623,16.0714623 10.5551213,15.7296 10.573259,15.2964197 L11.1124721,3.91349508 L0.867265574,3.91349508 L1.40647869,15.2964197 Z M7.69790164,6.74081311 C7.69790164,6.55943607 7.84497049,6.41232787 8.02642623,6.41232787 L8.55186885,6.41232787 C8.73320656,6.41232787 8.88039344,6.55939672 8.88039344,6.74081311 L8.88039344,13.2441443 C8.88039344,13.4255607 8.73332459,13.5726295 8.55186885,13.5726295 L8.02642623,13.5726295 C7.84504918,13.5726295 7.69790164,13.4256393 7.69790164,13.2441443 L7.69790164,6.74081311 Z M5.3986623,6.74081311 C5.3986623,6.55943607 5.54573115,6.41232787 5.72714754,6.41232787 L6.25259016,6.41232787 C6.43392787,6.41232787 6.58107541,6.55939672 6.58107541,6.74081311 L6.58107541,13.2441443 C6.58107541,13.4255607 6.4340459,13.5726295 6.25259016,13.5726295 L5.72714754,13.5726295 C5.54577049,13.5726295 5.3986623,13.4256393 5.3986623,13.2441443 L5.3986623,6.74081311 Z M3.09934426,6.74081311 C3.09934426,6.55943607 3.24641311,6.41232787 3.42782951,6.41232787 L3.95331148,6.41232787 C4.13468852,6.41232787 4.28179672,6.55939672 4.28179672,6.74081311 L4.28179672,13.2441443 C4.28179672,13.4255607 4.13472787,13.5726295 3.95331148,13.5726295 L3.42782951,13.5726295 C3.24645246,13.5726295 3.09934426,13.4256393 3.09934426,13.2441443 L3.09934426,6.74081311 Z" id="Shape"></path>
            <path d="M11.4714885,0.827921311 L7.98814426,0.827921311 L7.98814426,0.169377049 C7.98814426,0.0758557377 7.91232787,0 7.81876721,0 L4.1608918,0 C4.06737049,0 3.9915541,0.0758557377 3.9915541,0.169377049 L3.9915541,0.827881967 L0.508170492,0.827881967 C0.227842623,0.827881967 0.000629508197,1.05513443 0.000629508197,1.3354623 L0.000629508197,2.92996721 L11.9790295,2.92996721 L11.9790295,1.33550164 C11.9790295,1.05517377 11.7518164,0.827921311 11.4714885,0.827921311 Z" id="Shape"></path>
        </g>
    </g>
</svg>