<?xml version="1.0" encoding="UTF-8"?>
<svg width="16px" height="16px" viewBox="0 0 16 16" version="1.1" xmlns="http://www.w3.org/2000/svg" xmlns:xlink="http://www.w3.org/1999/xlink">
    <!-- Generator: Sketch 48.1 (47250) - http://www.bohemiancoding.com/sketch -->
    <title>Search</title>
    <desc>Created with Sketch.</desc>
    <defs></defs>
    <g id="Icons-/-Navigation-24px-/-Grey-/-Search" stroke="none" stroke-width="1" fill="none" fill-rule="evenodd" transform="translate(-4.000000, -4.000000)">
        <path d="M19.70654,18.3704831 L15.3259278,13.9881566 C16.1111588,12.9171794 16.531804,11.6223935 16.525939,10.294408 C16.5109564,6.82792513 13.7071951,4.02008526 10.2407377,4.00006368 C8.58184241,3.99255813 6.98884613,4.64882008 5.81662335,5.82265292 C4.64440056,6.99648576 3.99032571,8.59038129 4.00010817,10.2492647 C4.01509084,13.7160631 6.81910797,16.5241588 10.2858809,16.5441804 C11.6192764,16.5499595 12.9187929,16.1244044 13.9904868,15.3310263 L13.9950583,15.3275977 L18.3716705,19.7064955 C18.6083,19.9547418 18.960894,20.0552261 19.2928389,19.9690154 C19.6247839,19.8828047 19.8839215,19.6234452 19.9698481,19.2914266 C20.0557747,18.959408 19.9549887,18.6069001 19.70654,18.3704831 L19.70654,18.3704831 Z M10.2813095,15.2893116 C7.5080426,15.2733583 5.26486537,13.0271222 5.25269126,10.2538362 C5.24520615,8.92690132 5.76850908,7.65204097 6.70611075,6.71304406 C7.64371242,5.77404715 8.91779321,5.2488491 10.2447377,5.25436106 C13.0180046,5.27031434 15.2611818,7.51655045 15.2733559,10.2898365 C15.280841,11.6167713 14.7575381,12.8916317 13.8199364,13.8306286 C12.8823348,14.7696255 11.608254,15.2948235 10.2813095,15.2893116 Z" id="Search" fill="#8E8E93"></path>
    </g>
</svg>